<?xml version="1.0" encoding="UTF-8"?>
<!DOCTYPE svg PUBLIC "-//W3C//DTD SVG 1.1//EN" "http://www.w3.org/Graphics/SVG/1.1/DTD/svg11.dtd">
<svg xmlns="http://www.w3.org/2000/svg" version="1.1" width="32px" height="32px" style="shape-rendering:geometricPrecision; text-rendering:geometricPrecision; image-rendering:optimizeQuality; fill-rule:evenodd; clip-rule:evenodd" xmlns:xlink="http://www.w3.org/1999/xlink">
<g><path style="opacity:1" fill="#fdfcfa" d="M 0.5,-0.5 C 10.8333,-0.5 21.1667,-0.5 31.5,-0.5C 31.5,10.1667 31.5,20.8333 31.5,31.5C 20.8333,31.5 10.1667,31.5 -0.5,31.5C -0.5,21.1667 -0.5,10.8333 -0.5,0.5C 0.166667,0.5 0.5,0.166667 0.5,-0.5 Z"/></g>
<g><path style="opacity:1" fill="#e99e94" d="M 18.5,1.5 C 19.9464,0.387053 21.6131,0.220387 23.5,1C 24.4506,1.71752 24.6172,2.55085 24,3.5C 22.5319,1.96378 21.0319,1.63045 19.5,2.5C 19.5,1.83333 19.1667,1.5 18.5,1.5 Z"/></g>
<g><path style="opacity:1" fill="#fdc26c" d="M 15.5,16.5 C 14.6618,16.1583 14.3284,15.4916 14.5,14.5C 14.8333,13.1667 15.1667,11.8333 15.5,10.5C 17.2916,8.53871 19.4582,7.20538 22,6.5C 24.7791,6.6104 26.1125,7.94373 26,10.5C 24.8867,8.67075 23.3867,7.83742 21.5,8C 19.109,10.6371 17.109,13.4704 15.5,16.5 Z"/></g>
<g><path style="opacity:1" fill="#c26455" d="M 18.5,1.5 C 19.1667,1.5 19.5,1.83333 19.5,2.5C 17.659,4.84854 16.3257,7.51521 15.5,10.5C 15.1667,11.8333 14.8333,13.1667 14.5,14.5C 13.5,15.8333 12.5,17.1667 11.5,18.5C 11.0623,17.4937 10.3957,17.4937 9.5,18.5C 10.6918,11.7785 13.6918,6.11186 18.5,1.5 Z"/></g>
<g><path style="opacity:1" fill="#f19c4f" d="M 14.5,14.5 C 14.3284,15.4916 14.6618,16.1583 15.5,16.5C 15.5,17.1667 15.5,17.8333 15.5,18.5C 14.596,19.209 14.2627,20.209 14.5,21.5C 12.6394,24.0216 10.6394,26.5216 8.5,29C 7.20677,29.49 5.87344,29.6567 4.5,29.5C 4.16667,29.5 3.83333,29.5 3.5,29.5C 8.28029,27.6891 10.947,24.0224 11.5,18.5C 12.5,17.1667 13.5,15.8333 14.5,14.5 Z"/></g>
<g><path style="opacity:1" fill="#c7cc75" d="M 15.5,22.5 C 15.5,21.8333 15.1667,21.5 14.5,21.5C 14.2627,20.209 14.596,19.209 15.5,18.5C 16.8979,16.8912 18.5646,16.0579 20.5,16C 18.4497,17.9651 16.783,20.1318 15.5,22.5 Z"/></g>
<g><path style="opacity:1" fill="#9b483f" d="M 11.5,18.5 C 10.947,24.0224 8.28029,27.6891 3.5,29.5C 2.62356,29.6309 1.95689,29.2975 1.5,28.5C 6.43894,27.0884 9.10561,23.7551 9.5,18.5C 10.3957,17.4937 11.0623,17.4937 11.5,18.5 Z"/></g>
<g><path style="opacity:1" fill="#80712c" d="M 14.5,21.5 C 15.1667,21.5 15.5,21.8333 15.5,22.5C 14.0553,25.1182 12.3887,27.6182 10.5,30C 8.28841,30.7891 6.28841,30.6225 4.5,29.5C 5.87344,29.6567 7.20677,29.49 8.5,29C 10.6394,26.5216 12.6394,24.0216 14.5,21.5 Z"/></g>
</svg>
